<?xml version="1.0" standalone="no"?>
<!DOCTYPE svg PUBLIC "-//W3C//DTD SVG 20010904//EN"
 "http://www.w3.org/TR/2001/REC-SVG-20010904/DTD/svg10.dtd">
<svg version="1.0" xmlns="http://www.w3.org/2000/svg"
 width="500.000000pt" height="500.000000pt" viewBox="0 0 500.000000 500.000000"
 preserveAspectRatio="xMidYMid meet">
<metadata>
Created by potrace 1.11, written by Peter Selinger 2001-2013
</metadata>
<g transform="translate(0.000000,500.000000) scale(0.100000,-0.100000)"
fill="#000000" stroke="none">
<path d="M1013 3251 c-254 -64 -419 -242 -475 -511 -24 -112 -20 -295 7 -394
47 -170 157 -306 307 -375 145 -68 343 -89 544 -56 134 22 124 11 124 132 0
88 -2 104 -14 100 -53 -21 -186 -39 -281 -40 -88 0 -123 4 -174 22 -147 51
-233 150 -267 310 -51 243 40 487 215 575 128 65 248 70 479 20 l33 -7 -3 104
-3 103 -50 14 c-30 8 -115 15 -210 18 -131 3 -173 0 -232 -15z"/>
<path d="M1634 3233 c4 -10 120 -309 259 -666 l252 -647 110 2 110 3 257 655
c141 360 257 658 257 663 1 4 -57 7 -129 7 -71 0 -130 -2 -130 -4 0 -2 -69
-190 -154 -417 -84 -228 -166 -451 -182 -496 l-28 -81 -86 236 c-48 130 -131
355 -184 500 l-98 262 -130 0 c-120 0 -130 -1 -124 -17z"/>
<path d="M3060 2585 l0 -665 121 0 120 0 -3 510 c-2 281 -2 510 -2 510 1 0 14
-39 29 -87 20 -66 285 -800 330 -915 6 -15 20 -18 85 -18 76 0 78 1 88 28 5
15 77 212 160 437 82 226 160 443 171 483 12 39 23 72 24 72 1 0 1 -229 -1
-510 l-3 -510 120 0 121 0 0 665 0 665 -172 0 -173 0 -89 -248 c-49 -136 -124
-350 -167 -475 -43 -126 -79 -231 -81 -233 -2 -2 -18 45 -36 104 -17 59 -91
274 -165 477 l-134 370 -172 3 -171 2 0 -665z"/>
</g>
</svg>
